<svg width="20" height="21" viewBox="0 0 20 21" fill="none" xmlns="http://www.w3.org/2000/svg">
<path d="M10.0007 0.47998C7.28487 0.47998 6.94403 0.491856 5.87735 0.540397C4.81276 0.589147 4.08608 0.757689 3.45024 1.00498C2.79253 1.2604 2.23461 1.60206 1.67877 2.15811C1.12251 2.71394 0.780841 3.27186 0.524589 3.92936C0.276669 4.5654 0.107918 5.29227 0.0600007 6.35644C0.0125002 7.42311 0 7.76415 0 10.48C0 13.1958 0.0120836 13.5356 0.0604175 14.6023C0.109376 15.6669 0.27792 16.3935 0.525006 17.0294C0.780633 17.6871 1.1223 18.245 1.67835 18.8008C2.23398 19.3571 2.7919 19.6996 3.4492 19.955C4.08546 20.2023 4.81234 20.3708 5.87673 20.4196C6.94341 20.4681 7.28403 20.48 9.99969 20.48C12.7158 20.48 13.0556 20.4681 14.1222 20.4196C15.1868 20.3708 15.9143 20.2023 16.5506 19.955C17.2081 19.6996 17.7652 19.3571 18.3208 18.8008C18.8771 18.245 19.2187 17.6871 19.475 17.0296C19.7208 16.3935 19.8896 15.6666 19.9396 14.6025C19.9875 13.5358 20 13.1958 20 10.48C20 7.76415 19.9875 7.42331 19.9396 6.35665C19.8896 5.29206 19.7208 4.5654 19.475 3.92956C19.2187 3.27186 18.8771 2.71394 18.3208 2.15811C17.7646 1.60186 17.2083 1.26019 16.55 1.00498C15.9125 0.757689 15.1854 0.589147 14.1208 0.540397C13.0541 0.491856 12.7145 0.47998 9.99781 0.47998H10.0007ZM9.10364 2.28206C9.36989 2.28165 9.66698 2.28206 10.0007 2.28206C12.6708 2.28206 12.9872 2.29165 14.0416 2.33956C15.0166 2.38415 15.5458 2.54706 15.8983 2.68394C16.365 2.86519 16.6977 3.08186 17.0475 3.43186C17.3975 3.78186 17.6141 4.11519 17.7958 4.58186C17.9327 4.93394 18.0958 5.46311 18.1402 6.43811C18.1881 7.49227 18.1985 7.80894 18.1985 10.4777C18.1985 13.1464 18.1881 13.4631 18.1402 14.5173C18.0956 15.4923 17.9327 16.0214 17.7958 16.3735C17.6146 16.8402 17.3975 17.1725 17.0475 17.5223C16.6975 17.8723 16.3652 18.0889 15.8983 18.2702C15.5462 18.4077 15.0166 18.5702 14.0416 18.6148C12.9874 18.6627 12.6708 18.6731 10.0007 18.6731C7.33049 18.6731 7.01403 18.6627 5.95985 18.6148C4.98484 18.5698 4.45567 18.4069 4.10296 18.27C3.63629 18.0887 3.30295 17.8721 2.95295 17.5221C2.60294 17.1721 2.38628 16.8396 2.20461 16.3727C2.06773 16.0206 1.9046 15.4914 1.86023 14.5164C1.81231 13.4623 1.80273 13.1456 1.80273 10.4752C1.80273 7.80477 1.81231 7.48977 1.86023 6.43561C1.90481 5.46061 2.06773 4.93144 2.20461 4.57894C2.38586 4.11227 2.60294 3.77894 2.95295 3.42894C3.30295 3.07894 3.63629 2.86227 4.10296 2.68061C4.45546 2.54311 4.98484 2.38061 5.95985 2.33581C6.88236 2.29415 7.23987 2.28165 9.10364 2.27956V2.28206Z" fill="white"/>
<path d="M15.3172 3.91792C15.0798 3.91792 14.8478 3.98831 14.6505 4.12018C14.4531 4.25206 14.2993 4.4395 14.2085 4.65879C14.1177 4.87809 14.0939 5.11939 14.1403 5.35218C14.1866 5.58497 14.3009 5.79879 14.4688 5.96659C14.6367 6.1344 14.8505 6.24865 15.0833 6.29491C15.3161 6.34116 15.5574 6.31734 15.7767 6.22645C15.996 6.13556 16.1834 5.98169 16.3152 5.7843C16.447 5.5869 16.5173 5.35485 16.5172 5.1175C16.5172 4.455 15.9797 3.91792 15.3172 3.91792Z" fill="white"/>
<path fill-rule="evenodd" clip-rule="evenodd" d="M9.97922 5.32C7.14315 5.32 4.84375 7.61937 4.84375 10.4554C4.84375 13.2915 7.14315 15.5898 9.97922 15.5898C12.8153 15.5898 15.1141 13.2915 15.1141 10.4554C15.1141 7.61937 12.8153 5.32 9.97922 5.32ZM10 13.7613C11.8122 13.7613 13.2813 12.2922 13.2813 10.48C13.2813 8.66782 11.8122 7.19875 10 7.19875C8.18782 7.19875 6.71875 8.66782 6.71875 10.48C6.71875 12.2922 8.18782 13.7613 10 13.7613Z" fill="white"/>
</svg>
