<svg width="20" height="19" viewBox="0 0 20 19" fill="none" xmlns="http://www.w3.org/2000/svg">
<path fill-rule="evenodd" clip-rule="evenodd" d="M10.6376 5.47494V7.59618C11.0818 6.91953 11.6941 6.36981 12.4146 6.00082C13.135 5.63184 13.9389 5.45623 14.7476 5.49119C19.0663 5.49119 20.0001 8.19117 20.0001 11.7036V18.8548H16.0001V12.5149C16.0001 11.0024 15.6951 9.05742 13.3401 9.05742C11.0564 9.05742 10.6664 10.7037 10.6664 12.4024V18.8548H6.67891V5.47494H10.6376ZM4.00018 2.11247C3.99968 2.50872 3.88223 2.896 3.66253 3.22577C3.44283 3.55554 3.13067 3.81312 2.76518 3.9662C2.39985 4.11805 1.99759 4.15777 1.60961 4.08031C1.22163 4.00285 0.865466 3.81171 0.58645 3.53121C0.306909 3.25053 0.116597 2.89347 0.0394442 2.50492C-0.0377081 2.11637 0.00174494 1.71369 0.152841 1.3475C0.303938 0.98132 0.559932 0.667985 0.888631 0.446902C1.21733 0.225819 1.60406 0.106858 2.00019 0.10498C2.26346 0.104979 2.52415 0.156957 2.76729 0.257934C3.01043 0.358912 3.23124 0.506901 3.41705 0.693412C3.60287 0.879923 3.75003 1.10129 3.85009 1.3448C3.95016 1.58832 4.00116 1.84919 4.00018 2.11247Z" fill="white"/>
<path d="M3.99997 5.49121H0V18.8549H3.99997V5.49121Z" fill="white"/>
</svg>
