<svg width="431" height="377" viewBox="0 0 431 377" fill="none" xmlns="http://www.w3.org/2000/svg">
<path d="M278.683 368.756C324.809 325.278 323.423 319.48 278.683 277.136C232.937 317.842 232.433 326.538 278.683 368.756Z" stroke="#6FA0A7" stroke-opacity="0.5" stroke-width="0.700137"/>
<path d="M278.683 460.502C324.809 417.024 323.423 411.226 278.683 368.882C232.937 409.588 232.433 418.284 278.683 460.502Z" stroke="#6FA0A7" stroke-opacity="0.5" stroke-width="0.700137"/>
<path d="M279.219 369.102C322.698 415.228 328.495 413.842 370.839 369.102C330.133 323.356 321.438 322.852 279.219 369.102Z" stroke="#6FA0A7" stroke-opacity="0.5" stroke-width="0.700137"/>
<path d="M186.537 369.03C230.016 415.156 235.813 413.77 278.157 369.03C237.451 323.284 228.755 322.78 186.537 369.03Z" stroke="#6FA0A7" stroke-opacity="0.5" stroke-width="0.700137"/>
<path d="M370.383 92.62C416.508 49.1414 415.122 43.3443 370.383 1C324.637 41.7059 324.132 50.4017 370.383 92.62Z" stroke="#6FA0A7" stroke-opacity="0.5" stroke-width="0.700137"/>
<path d="M370.383 184.366C416.508 140.887 415.122 135.09 370.383 92.746C324.637 133.452 324.132 142.148 370.383 184.366Z" stroke="#6FA0A7" stroke-opacity="0.5" stroke-width="0.700137"/>
<path d="M370.918 92.9663C414.397 139.092 420.194 137.706 462.538 92.9663C421.832 47.2202 413.137 46.7157 370.918 92.9663Z" stroke="#6FA0A7" stroke-opacity="0.5" stroke-width="0.700137"/>
<path d="M278.236 92.8943C321.715 139.02 327.512 137.634 369.856 92.8943C329.15 47.1482 320.455 46.6437 278.236 92.8943Z" stroke="#6FA0A7" stroke-opacity="0.5" stroke-width="0.700137"/>
<path d="M465.383 182.62C511.508 139.141 510.122 133.344 465.383 91C419.637 131.706 419.132 140.402 465.383 182.62Z" stroke="#6FA0A7" stroke-opacity="0.5" stroke-width="0.700137"/>
<path d="M465.383 274.366C511.508 230.887 510.122 225.09 465.383 182.746C419.637 223.452 419.132 232.148 465.383 274.366Z" stroke="#6FA0A7" stroke-opacity="0.5" stroke-width="0.700137"/>
<path d="M465.918 182.966C509.397 229.092 515.194 227.706 557.538 182.966C516.832 137.22 508.137 136.716 465.918 182.966Z" stroke="#6FA0A7" stroke-opacity="0.5" stroke-width="0.700137"/>
<path d="M373.236 182.894C416.715 229.02 422.512 227.634 464.856 182.894C424.15 137.148 415.455 136.644 373.236 182.894Z" stroke="#6FA0A7" stroke-opacity="0.5" stroke-width="0.700137"/>
<path d="M371.101 276.338C417.227 232.859 415.841 227.062 371.101 184.718C325.355 225.424 324.851 234.12 371.101 276.338Z" stroke="#6FA0A7" stroke-opacity="0.5" stroke-width="0.700137"/>
<path d="M371.101 368.084C417.227 324.605 415.841 318.808 371.101 276.464C325.355 317.17 324.851 325.866 371.101 368.084Z" stroke="#6FA0A7" stroke-opacity="0.5" stroke-width="0.700137"/>
<path d="M371.637 276.684C415.116 322.81 420.913 321.424 463.257 276.684C422.551 230.938 413.855 230.434 371.637 276.684Z" stroke="#6FA0A7" stroke-opacity="0.5" stroke-width="0.700137"/>
<path d="M278.955 276.612C322.434 322.738 328.231 321.352 370.575 276.612C329.869 230.866 321.173 230.362 278.955 276.612Z" stroke="#6FA0A7" stroke-opacity="0.5" stroke-width="0.700137"/>
<path d="M93.1463 368.056C139.272 324.577 137.886 318.78 93.1463 276.436C47.4002 317.142 46.8957 325.838 93.1463 368.056Z" stroke="#6FA0A7" stroke-opacity="0.5" stroke-width="0.700137"/>
<path d="M93.1463 459.802C139.272 416.323 137.886 410.526 93.1463 368.182C47.4002 408.888 46.8957 417.584 93.1463 459.802Z" stroke="#6FA0A7" stroke-opacity="0.5" stroke-width="0.700137"/>
<path d="M93.6821 368.402C137.161 414.528 142.958 413.142 185.302 368.402C144.596 322.656 135.9 322.152 93.6821 368.402Z" stroke="#6FA0A7" stroke-opacity="0.5" stroke-width="0.700137"/>
<path d="M1 368.33C44.4786 414.456 50.2757 413.07 92.62 368.33C51.9141 322.584 43.2183 322.08 1 368.33Z" stroke="#6FA0A7" stroke-opacity="0.5" stroke-width="0.700137"/>
</svg>
