<svg width="21" height="21" viewBox="0 0 21 21" fill="none" xmlns="http://www.w3.org/2000/svg">
<path fill-rule="evenodd" clip-rule="evenodd" d="M2.19967 15.3126L0.772583 20.5232L6.10488 19.1249C7.57416 19.9262 9.22826 20.3484 10.9116 20.3491H10.9159C16.4596 20.3491 20.9723 15.8376 20.9748 10.2936C20.9757 7.60653 19.9302 5.08017 18.0313 3.17946C16.1319 1.27876 13.6065 0.231659 10.9159 0.230347C5.37128 0.230347 0.859239 4.74106 0.856983 10.2855C0.856419 12.0577 1.31949 13.7877 2.19967 15.3126ZM2.55536 10.286C2.55705 5.67791 6.30743 1.92889 10.9191 1.92889C13.1523 1.92984 15.2512 2.80019 16.8298 4.37987C18.4083 5.95956 19.2771 8.05958 19.2762 10.2928C19.2744 14.9013 15.524 18.6507 10.9159 18.6507H10.9127C9.41214 18.65 7.94078 18.2472 6.65744 17.4855L6.35189 17.3044L3.18759 18.1341L4.03239 15.0501L3.83345 14.734C2.9966 13.4032 2.55468 11.8651 2.55536 10.286Z" fill="white"/>
<path fill-rule="evenodd" clip-rule="evenodd" d="M8.40197 6.08166C8.21358 5.66324 8.01539 5.65476 7.83642 5.64742C7.68985 5.6412 7.52218 5.64158 7.35469 5.64158C7.18702 5.64158 6.91479 5.7045 6.68458 5.956C6.45417 6.20751 5.80478 6.81546 5.80478 8.05207C5.80478 9.28869 6.70549 10.4835 6.83096 10.6513C6.95662 10.819 8.56964 13.4377 11.1244 14.445C13.2475 15.2823 13.6794 15.1157 14.1404 15.0739C14.6013 15.0321 15.6274 14.4659 15.8367 13.8791C16.0462 13.2922 16.0462 12.7894 15.9835 12.6843C15.9206 12.5794 15.7531 12.5166 15.5016 12.391C15.2503 12.2653 14.0146 11.6572 13.7842 11.5733C13.5538 11.4895 13.3863 11.4477 13.2186 11.6992C13.0512 11.9507 12.5698 12.5166 12.423 12.6843C12.2765 12.8522 12.1299 12.8731 11.8784 12.7474C11.6271 12.6214 10.8176 12.3563 9.85731 11.5001C9.11014 10.8339 8.60582 10.0112 8.45906 9.75968C8.31249 9.50817 8.44342 9.37215 8.56945 9.24687C8.6823 9.13421 8.82077 8.95335 8.94662 8.80659C9.0719 8.65983 9.11391 8.55509 9.19756 8.3876C9.28139 8.21975 9.23957 8.07299 9.17665 7.94733C9.11391 7.82167 8.62541 6.57865 8.40197 6.08166Z" fill="white"/>
</svg>
